{"accessors" : [{"bufferView" : 0, "byteOffset" : 0, "componentType" : 5123, "count" : 2436, "type" : "SCALAR", "max" : [2435], "min" : [0]}, {"bufferView" : 1, "byteOffset" : 0, "componentType" : 5126, "count" : 2436, "type" : "VEC3", "max" : [2.3014354705810547, 5.592695236206055, 0.6562911868095398], "min" : [-4.541240692138672, -1, 0.25149568915367126], "name" : "POSITION"}, {"bufferView" : 1, "byteOffset" : 12, "componentType" : 5126, "count" : 2436, "type" : "VEC3", "max" : [0.9997459053993225, 1.0000041723251343, 1.0000044107437134], "min" : [-1.0000042915344238, -1.0000042915344238, -0.9999940991401672], "name" : "NORMAL"}, {"bufferView" : 1, "byteOffset" : 24, "componentType" : 5126, "count" : 2436, "type" : "VEC2", "max" : [0.9391443133354187, 0.9394769668579102], "min" : [0.15345680713653564, 0.08631539344787598], "name" : "TEXCOORD_0"}, {"bufferView" : 0, "byteOffset" : 4872, "componentType" : 5123, "count" : 2850, "type" : "SCALAR", "max" : [2849], "min" : [0]}, {"bufferView" : 2, "byteOffset" : 0, "componentType" : 5126, "count" : 2850, "type" : "VEC3", "max" : [121.95750427246094, 116.11568450927734, 69.15594482421875], "min" : [-59.66484451293945, -40.82032775878906, -209.54678344726562], "name" : "POSITION"}, {"bufferView" : 2, "byteOffset" : 12, "componentType" : 5126, "count" : 2850, "type" : "VEC3", "max" : [0.9993864297866821, 1.0000027418136597, 1.0000044107437134], "min" : [-0.9993863701820374, -1.0000022649765015, -1.0000044107437134], "name" : "NORMAL"}, {"bufferView" : 2, "byteOffset" : 24, "componentType" : 5126, "count" : 2850, "type" : "VEC2", "max" : [0.9989989995956421, 0.9989989995956421], "min" : [0.0010010009864345193, 0.0010010004043579102], "name" : "TEXCOORD_0"}], "asset" : {"generator" : "Aspose.3D 24.9.1", "version" : "2.0"}, "buffers" : [{"uri" : "data:application/octet-stream;base64,", "byteLength" : 179736}], "bufferViews" : [{"buffer" : 0, "byteOffset" : 0, "byteLength" : 10572, "target" : 34963}, {"buffer" : 0, "byteOffset" : 10576, "byteLength" : 77952, "byteStride" : 32, "target" : 34962}, {"buffer" : 0, "byteOffset" : 88532, "byteLength" : 91200, "byteStride" : 32, "target" : 34962}], "cameras" : [{"perspective" : {"aspectRatio" : 1.5, "yfov" : 0.6911112070083618, "zfar" : 10000, "znear" : 10.000000149011612}, "type" : "perspective", "name" : "Camera"}], "images" : [{"uri" : "https://github.com/Vansh-Vviation/Geofs-1990s-buildings-addon/raw/main/Untitled368_20241227163004.png"}, {"uri" : "https://github.com/Vansh-Vviation/Geofs-1990s-buildings-addon/raw/main/360_F_133781111_bWOJXWYTzKZI8vLIu9ESIEuCuy1rbqX2.jpg"}], "materials" : [{"name" : "Material.001", "pbrMetallicRoughness" : {"baseColorFactor" : [1, 1, 1, 1], "baseColorTexture" : {"index" : 0, "texCoord" : 0}, "metallicFactor" : 1, "roughnessFactor" : 1}, "emissiveFactor" : [0, 0, 0], "alphaMode" : "OPAQUE", "doubleSided" : false}, {"name" : "Material.002", "pbrMetallicRoughness" : {"baseColorFactor" : [1, 1, 1, 1], "baseColorTexture" : {"index" : 1, "texCoord" : 0}, "metallicFactor" : 1, "roughnessFactor" : 1}, "emissiveFactor" : [0, 0, 0], "alphaMode" : "OPAQUE", "doubleSided" : false}], "meshes" : [{"primitives" : [{"attributes" : {"POSITION" : 1, "NORMAL" : 2, "TEXCOORD_0" : 3}, "indices" : 0, "material" : 0, "mode" : 4}], "name" : "Cube"}, {"primitives" : [{"attributes" : {"POSITION" : 5, "NORMAL" : 6, "TEXCOORD_0" : 7}, "indices" : 4, "material" : 1, "mode" : 4}], "name" : "Cube.001"}], "nodes" : [{"matrix" : [88.40273213338615, -2.0298220608103844E-06, 46.74352309521365, 0, 46.7435230952132, 1.839743719059455E-05, -88.4027321333845, 0, -6.805192142910439E-06, 99.9999999999983, 1.7212647462795896E-05, 0, -58.61542892456055, -29.189924240112305, 279.9186096191406, 1], "mesh" : 0, "name" : "Cube"}, {"camera" : 0, "matrix" : [-65.15581275167911, -44.527139154551755, -61.417049289096546, 0, -32.401349332924404, 89.5395728270982, -30.542085476036892, 0, 68.59207001076241, 8.666908834403258E-06, -72.76761921184276, 0, 735.88916015625, 495.8309326171875, 692.5791015625, 1], "name" : "Camera"}, {"matrix" : [12.04254764587699, 0, 4.426601739782135, 0, 4.4266017397821225, 9.686641096001977E-07, -12.042547645876956, 0, -8.443854677178133E-09, 0.3241707086563101, 2.2971463945112804E-08, 0, -482.6809387207031, 31.398624420166016, 660.287353515625, 1], "mesh" : 1, "name" : "Cube.001"}], "samplers" : [{"magFilter" : 9729, "minFilter" : 9729, "wrapS" : 10497, "wrapT" : 10497}, {"magFilter" : 9729, "minFilter" : 9729, "wrapS" : 10497, "wrapT" : 10497}], "scene" : 0, "scenes" : [{"nodes" : [0, 1, 2]}], "textures" : [{"sampler" : 0, "source" : 0, "name" : "base_color_texture"}, {"sampler" : 1, "source" : 1, "name" : "base_color_texture"}]}