{"accessors" : [{"bufferView" : 0, "byteOffset" : 0, "componentType" : 5123, "count" : 2436, "type" : "SCALAR", "max" : [2435], "min" : [0]}, {"bufferView" : 1, "byteOffset" : 0, "componentType" : 5126, "count" : 2436, "type" : "VEC3", "max" : [3.5219733715057373, 3.644714832305908, 0.14098447561264038], "min" : [-3.3207027912139893, -2.9479804039001465, -0.26381102204322815], "name" : "POSITION"}, {"bufferView" : 1, "byteOffset" : 12, "componentType" : 5126, "count" : 2436, "type" : "VEC3", "max" : [0.9997458457946777, 1.0000042915344238, 1.0000044107437134], "min" : [-1.0000042915344238, -1.0000044107437134, -0.999994158744812], "name" : "NORMAL"}, {"bufferView" : 1, "byteOffset" : 24, "componentType" : 5126, "count" : 2436, "type" : "VEC2", "max" : [0.9391443133354187, 0.9394769668579102], "min" : [0.15345680713653564, 0.08631539344787598], "name" : "TEXCOORD_0"}], "asset" : {"generator" : "Aspose.3D 24.9.1", "version" : "2.0"}, "buffers" : [{"uri" : "data:application/octet-stream;base64,", "byteLength" : 82832}], "bufferViews" : [{"buffer" : 0, "byteOffset" : 0, "byteLength" : 4872, "target" : 34963}, {"buffer" : 0, "byteOffset" : 4876, "byteLength" : 77952, "byteStride" : 32, "target" : 34962}], "cameras" : [{"perspective" : {"aspectRatio" : 1.5, "yfov" : 0.6911112070083618, "zfar" : 10000, "znear" : 10.000000149011612}, "type" : "perspective", "name" : "Camera"}], "images" : [{"uri" : "/home/vanshofficial10/Untitled368_20241227163004.png"}], "materials" : [{"name" : "Material.001", "pbrMetallicRoughness" : {"baseColorFactor" : [1, 1, 1, 1], "baseColorTexture" : {"index" : 0, "texCoord" : 0}, "metallicFactor" : 1, "roughnessFactor" : 1}, "emissiveFactor" : [0, 0, 0], "alphaMode" : "OPAQUE", "doubleSided" : false}], "meshes" : [{"primitives" : [{"attributes" : {"POSITION" : 1, "NORMAL" : 2, "TEXCOORD_0" : 3}, "indices" : 0, "material" : 0, "mode" : 4}], "name" : "Cube"}], "nodes" : [{"matrix" : [88.40273213338615, -2.0298220608103844E-06, 46.74352309521365, 0, 46.7435230952132, 1.839743719059455E-05, -88.4027321333845, 0, -6.805192142910439E-06, 99.9999999999983, 1.7212647462795896E-05, 0, -75.45882415771484, 22.340747833251953, 50.65956115722656, 1], "mesh" : 0, "name" : "Cube"}, {"camera" : 0, "matrix" : [-65.15581275167911, -44.527139154551755, -61.417049289096546, 0, -32.401349332924404, 89.5395728270982, -30.542085476036892, 0, 68.59207001076241, 8.666908834403258E-06, -72.76761921184276, 0, 735.88916015625, 495.8309326171875, 692.5791015625, 1], "name" : "Camera"}], "samplers" : [{"magFilter" : 9729, "minFilter" : 9729, "wrapS" : 10497, "wrapT" : 10497}], "scene" : 0, "scenes" : [{"nodes" : [0, 1]}], "textures" : [{"sampler" : 0, "source" : 0, "name" : "base_color_texture"}]}