{"accessors" : [{"bufferView" : 0, "byteOffset" : 0, "componentType" : 5123, "count" : 228, "type" : "SCALAR", "max" : [227], "min" : [0]}, {"bufferView" : 1, "byteOffset" : 0, "componentType" : 5126, "count" : 228, "type" : "VEC3", "max" : [103.46888732910156, -127.14944458007812, 543.8662719726562], "min" : [-107.85972595214844, -338.4780578613281, -541], "name" : "POSITION"}, {"bufferView" : 1, "byteOffset" : 12, "componentType" : 5126, "count" : 228, "type" : "VEC3", "max" : [0.9911836385726929, 0.9911836981773376, 1.0000044107437134], "min" : [-0.991183876991272, -0.9911834001541138, -1.0000044107437134], "name" : "NORMAL"}, {"bufferView" : 1, "byteOffset" : 24, "componentType" : 5126, "count" : 228, "type" : "VEC2", "max" : [0.5957833528518677, 0.9620192646980286], "min" : [0.2232704758644104, -0.17770886421203613], "name" : "TEXCOORD_0"}, {"bufferView" : 0, "byteOffset" : 456, "componentType" : 5123, "count" : 2484, "type" : "SCALAR", "max" : [2483], "min" : [0]}, {"bufferView" : 2, "byteOffset" : 0, "componentType" : 5126, "count" : 2484, "type" : "VEC3", "max" : [-12.00865364074707, 110.33722686767578, 833.7396240234375], "min" : [-21.193403244018555, 101.15247344970703, 542.1333618164062], "name" : "POSITION"}, {"bufferView" : 2, "byteOffset" : 12, "componentType" : 5126, "count" : 2484, "type" : "VEC3", "max" : [0.9994009733200073, 0.9994009733200073, 1.0000044107437134], "min" : [-0.9994009733200073, -0.9994009733200073, -1.0000044107437134], "name" : "NORMAL"}, {"bufferView" : 2, "byteOffset" : 24, "componentType" : 5126, "count" : 2484, "type" : "VEC2", "max" : [0.7409692406654358, 1], "min" : [0, 0], "name" : "TEXCOORD_0"}, {"bufferView" : 0, "byteOffset" : 5424, "componentType" : 5123, "count" : 228, "type" : "SCALAR", "max" : [227], "min" : [0]}, {"bufferView" : 3, "byteOffset" : 0, "componentType" : 5126, "count" : 228, "type" : "VEC3", "max" : [90.55519104003906, 210.54388427734375, 546.8028564453125], "min" : [-120.77342224121094, -0.7847366333007812, -547.820068359375], "name" : "POSITION"}, {"bufferView" : 3, "byteOffset" : 12, "componentType" : 5126, "count" : 228, "type" : "VEC3", "max" : [0.9911838173866272, 0.9911834597587585, 1.0000044107437134], "min" : [-0.9911836981773376, -0.9911837577819824, -1.0000042915344238], "name" : "NORMAL"}, {"bufferView" : 3, "byteOffset" : 24, "componentType" : 5126, "count" : 228, "type" : "VEC2", "max" : [0.5957833528518677, 0.9620192646980286], "min" : [0.2232704758644104, -0.17770886421203613], "name" : "TEXCOORD_0"}], "asset" : {"generator" : "Aspose.3D 24.6.0", "version" : "2.0"}, "buffers" : [{"uri" : "data:application/octet-stream;base64,", "byteLength" : 99976}], "bufferViews" : [{"buffer" : 0, "byteOffset" : 0, "byteLength" : 5880, "target" : 34963}, {"buffer" : 0, "byteOffset" : 5884, "byteLength" : 7296, "byteStride" : 32, "target" : 34962}, {"buffer" : 0, "byteOffset" : 13184, "byteLength" : 79488, "byteStride" : 32, "target" : 34962}, {"buffer" : 0, "byteOffset" : 92676, "byteLength" : 7296, "byteStride" : 32, "target" : 34962}], "cameras" : [{"perspective" : {"aspectRatio" : 1.5, "yfov" : 0.6911112070083618, "zfar" : 10000, "znear" : 10.000000149011612}, "type" : "perspective", "name" : "Camera"}], "images" : [{"uri" : "https://cors-anywhere.herokuapp.com/https://raw.githubusercontent.com/Vansh-Vviation/Geofs-1990s-buildings-addon/main/0441b32__.jpg"}, {"uri" : "https://cors-anywhere.herokuapp.com/https://raw.githubusercontent.com/Vansh-Vviation/Geofs-1990s-buildings-addon/main/0441b32__.jpg"}], "materials" : [{"name" : "Material", "pbrMetallicRoughness" : {"baseColorFactor" : [1, 1, 1, 1], "baseColorTexture" : {"index" : 0, "texCoord" : 0}, "metallicFactor" : 1, "roughnessFactor" : 1}, "emissiveFactor" : [0, 0, 0], "alphaMode" : "OPAQUE", "doubleSided" : false}, {"name" : "Material.003", "pbrMetallicRoughness" : {"baseColorFactor" : [1, 1, 1, 1], "baseColorTexture" : {"index" : 1, "texCoord" : 0}, "metallicFactor" : 1, "roughnessFactor" : 1}, "emissiveFactor" : [0, 0, 0], "alphaMode" : "OPAQUE", "doubleSided" : false}], "meshes" : [{"primitives" : [{"attributes" : {"POSITION" : 1, "NORMAL" : 2, "TEXCOORD_0" : 3}, "indices" : 0, "material" : 0, "mode" : 4}], "name" : "Cube"}, {"primitives" : [{"attributes" : {"POSITION" : 5, "NORMAL" : 6, "TEXCOORD_0" : 7}, "indices" : 4, "mode" : 4}], "name" : "Cylinder"}, {"primitives" : [{"attributes" : {"POSITION" : 9, "NORMAL" : 10, "TEXCOORD_0" : 11}, "indices" : 8, "material" : 1, "mode" : 4}], "name" : "Cube.003"}], "nodes" : [{"matrix" : [100, 0, 0, 0, 0, -4.371139000186241E-06, -99.9999999999999, 0, 0, 99.9999999999999, -4.371139000186241E-06, 0, 0, 0, 0, 1], "mesh" : 0, "name" : "Cube"}, {"camera" : 0, "matrix" : [-65.15581275167911, -44.527139154551755, -61.417049289096546, 0, -32.401349332924404, 89.5395728270982, -30.542085476036892, 0, 68.59207001076241, 8.666908834403258E-06, -72.76761921184276, 0, 735.88916015625, 495.8309326171875, 692.5791015625, 1], "name" : "Camera"}, {"matrix" : [100, 0, 0, 0, 0, -4.371139000186241E-06, -99.9999999999999, 0, 0, 99.9999999999999, -4.371139000186241E-06, 0, 0, 0, 0, 1], "mesh" : 1, "name" : "Cylinder"}, {"matrix" : [100, 0, 0, 0, 0, -4.371139000186241E-06, -99.9999999999999, 0, 0, 99.9999999999999, -4.371139000186241E-06, 0, 0, 0, 0, 1], "mesh" : 2, "name" : "Cube.001"}], "samplers" : [{"magFilter" : 9729, "minFilter" : 9729, "wrapS" : 10497, "wrapT" : 10497}, {"magFilter" : 9729, "minFilter" : 9729, "wrapS" : 10497, "wrapT" : 10497}], "scene" : 0, "scenes" : [{"nodes" : [0, 1, 2, 3]}], "textures" : [{"sampler" : 0, "source" : 0, "name" : "base_color_texture"}, {"sampler" : 1, "source" : 1, "name" : "base_color_texture"}]}
