{"accessors" : [{"bufferView" : 0, "byteOffset" : 0, "componentType" : 5123, "count" : 228, "type" : "SCALAR", "max" : [143], "min" : [0]}, {"bufferView" : 1, "byteOffset" : 0, "componentType" : 5126, "count" : 144, "type" : "VEC3", "max" : [103.46888732910156, 543.8662719726562, 338.4780578613281], "min" : [-107.85972595214844, -541, 127.14944458007812], "name" : "POSITION"}, {"bufferView" : 1, "byteOffset" : 12, "componentType" : 5126, "count" : 144, "type" : "VEC2", "max" : [0.595782995223999, 0.9620190262794495], "min" : [0.2232699990272522, -0.17770898342132568], "name" : "TEXCOORD_0"}, {"bufferView" : 1, "byteOffset" : 20, "componentType" : 5126, "count" : 144, "type" : "VEC3", "max" : [0.9911876320838928, 1.0000044107437134, 0.9911876320838928], "min" : [-0.9911876320838928, -1.0000044107437134, -0.9911876320838928], "name" : "NORMAL"}, {"bufferView" : 0, "byteOffset" : 456, "componentType" : 5123, "count" : 2484, "type" : "SCALAR", "max" : [1463], "min" : [0]}, {"bufferView" : 2, "byteOffset" : 0, "componentType" : 5126, "count" : 1464, "type" : "VEC3", "max" : [-12.00865364074707, 833.7396240234375, -101.15247344970703], "min" : [-21.193403244018555, 542.1333618164062, -110.33722686767578], "name" : "POSITION"}, {"bufferView" : 2, "byteOffset" : 12, "componentType" : 5126, "count" : 1464, "type" : "VEC2", "max" : [0.7409690022468567, 1], "min" : [0, 0], "name" : "TEXCOORD_0"}, {"bufferView" : 2, "byteOffset" : 20, "componentType" : 5126, "count" : 1464, "type" : "VEC3", "max" : [0.9994021654129028, 1.0000044107437134, 0.9994021654129028], "min" : [-0.9994021654129028, -1.0000044107437134, -0.9994021654129028], "name" : "NORMAL"}, {"bufferView" : 0, "byteOffset" : 5424, "componentType" : 5123, "count" : 228, "type" : "SCALAR", "max" : [143], "min" : [0]}, {"bufferView" : 3, "byteOffset" : 0, "componentType" : 5126, "count" : 144, "type" : "VEC3", "max" : [90.55519104003906, 546.8028564453125, 0.7847369909286499], "min" : [-120.77342224121094, -547.820068359375, -210.54388427734375], "name" : "POSITION"}, {"bufferView" : 3, "byteOffset" : 12, "componentType" : 5126, "count" : 144, "type" : "VEC2", "max" : [0.595782995223999, 0.9620190262794495], "min" : [0.2232699990272522, -0.17770898342132568], "name" : "TEXCOORD_0"}, {"bufferView" : 3, "byteOffset" : 20, "componentType" : 5126, "count" : 144, "type" : "VEC3", "max" : [0.9911876320838928, 1.0000044107437134, 0.9911876320838928], "min" : [-0.9911876320838928, -1.0000044107437134, -0.9911876320838928], "name" : "NORMAL"}], "asset" : {"generator" : "Aspose.3D 24.6.0", "version" : "2.0"}, "buffers" : [{"uri" : "buffer.bin", "byteLength" : 61960}], "bufferViews" : [{"buffer" : 0, "byteOffset" : 0, "byteLength" : 5880, "target" : 34963}, {"buffer" : 0, "byteOffset" : 5884, "byteLength" : 4608, "byteStride" : 32, "target" : 34962}, {"buffer" : 0, "byteOffset" : 10496, "byteLength" : 46848, "byteStride" : 32, "target" : 34962}, {"buffer" : 0, "byteOffset" : 57348, "byteLength" : 4608, "byteStride" : 32, "target" : 34962}], "meshes" : [{"primitives" : [{"attributes" : {"POSITION" : 1, "TEXCOORD_0" : 2, "NORMAL" : 3}, "indices" : 0, "mode" : 4}], "name" : ""}, {"primitives" : [{"attributes" : {"POSITION" : 5, "TEXCOORD_0" : 6, "NORMAL" : 7}, "indices" : 4, "mode" : 4}], "name" : ""}, {"primitives" : [{"attributes" : {"POSITION" : 9, "TEXCOORD_0" : 10, "NORMAL" : 11}, "indices" : 8, "mode" : 4}], "name" : ""}], "nodes" : [{"mesh" : 0, "name" : "Cube"}, {"mesh" : 1, "name" : "Cylinder"}, {"mesh" : 2, "name" : "Cube.001"}], "scene" : 0, "scenes" : [{"nodes" : [0, 1, 2]}]}